<?xml version="1.0" encoding="UTF-8" standalone="no"?>
<!-- Created with Inkscape (http://www.inkscape.org/) -->

<svg
   xmlns:dc="http://purl.org/dc/elements/1.1/"
   xmlns:cc="http://creativecommons.org/ns#"
   xmlns:rdf="http://www.w3.org/1999/02/22-rdf-syntax-ns#"
   xmlns:svg="http://www.w3.org/2000/svg"
   xmlns="http://www.w3.org/2000/svg"
   xmlns:sodipodi="http://sodipodi.sourceforge.net/DTD/sodipodi-0.dtd"
   xmlns:inkscape="http://www.inkscape.org/namespaces/inkscape"
   id="svg2"
   version="1.1"
   inkscape:version="0.48.4 r9939"
   width="123"
   height="93"
   xml:space="preserve"
   sodipodi:docname="owens-corning.svg"
   inkscape:export-filename="D:\My Webs\wwwroot\kritterMedia-llc\krittermedia\www\wp-content\themes\kritter3_0\images\clientLogos\Owens_Corning.png"
   inkscape:export-xdpi="90"
   inkscape:export-ydpi="90"><metadata
     id="metadata8"><rdf:RDF><cc:Work
         rdf:about=""><dc:format>image/svg+xml</dc:format><dc:type
           rdf:resource="http://purl.org/dc/dcmitype/StillImage" /><dc:title></dc:title></cc:Work></rdf:RDF></metadata><defs
     id="defs6" /><sodipodi:namedview
     pagecolor="#ffffff"
     bordercolor="#666666"
     borderopacity="1"
     objecttolerance="10"
     gridtolerance="10"
     guidetolerance="10"
     inkscape:pageopacity="0"
     inkscape:pageshadow="2"
     inkscape:window-width="1920"
     inkscape:window-height="1058"
     id="namedview4"
     showgrid="false"
     showguides="true"
     inkscape:guide-bbox="true"
     inkscape:zoom="3.8927835"
     inkscape:cx="81.175847"
     inkscape:cy="49.322034"
     inkscape:window-x="-8"
     inkscape:window-y="-8"
     inkscape:window-maximized="1"
     inkscape:current-layer="g10"><sodipodi:guide
       orientation="0,1"
       position="35.963983,81.175848"
       id="guide3045" /><sodipodi:guide
       orientation="0,1"
       position="191.63665,19.009534"
       id="guide3047" /></sodipodi:namedview><g
     id="g10"
     inkscape:groupmode="layer"
     inkscape:label="ink_ext_XXXXXX"
     transform="matrix(1.25,0,0,-1.25,0,93)"><g
       id="g3208"
       transform="matrix(2.1341804,0,0,2.1341804,13.031734,-174.10629)"><path
         inkscape:connector-curvature="0"
         d="m 26.03802,104.50181 5.660643,0 0,-1.58605 2.835015,0 0,-10.663485 -35.15194397,0 0,10.663485 2.83696417,0 0,1.58605 5.66243,0 9.0787078,3.88896 9.078184,-3.88896"
         style="fill:#1b458f;fill-opacity:1;fill-rule:nonzero;stroke:none"
         id="path3046" /><path
         inkscape:connector-curvature="0"
         d="m 25.342533,101.66605 -7.22e-4,-1.723698 1.115703,-0.0019 0.23231,1.725158 -1.347291,4.3e-4"
         style="fill:#ffffff;fill-opacity:1;fill-rule:nonzero;stroke:none"
         id="path3048" /><path
         inkscape:connector-curvature="0"
         d="m 31.398663,99.965836 c 0.07184,0 0.136823,0.0054 0.136823,0.09287 0,0.0692 -0.06372,0.0818 -0.123104,0.0818 l -0.116246,0 0,-0.174732 0.102527,0 0,0 z m -0.102527,-0.316372 -0.08502,0 0,0.563646 0.214441,0 c 0.132671,0 0.198736,-0.0494 0.198736,-0.1604 0,-0.100972 -0.06264,-0.144835 -0.145307,-0.155196 l 0.159567,-0.24805 -0.09513,0 -0.148917,0.244242 -0.09838,0 0,-0.244242 z m 0.10343,-0.125649 c 0.221299,0 0.395306,0.172671 0.395306,0.408537 0,0.231338 -0.174007,0.405778 -0.395306,0.405778 -0.224007,0 -0.398375,-0.17444 -0.398375,-0.405778 0,-0.235866 0.174368,-0.408537 0.398375,-0.408537 l 0,0 z m -0.49675,0.408537 c 0,0.280758 0.227617,0.487368 0.49675,0.487368 0.266606,0 0.494043,-0.20661 0.494043,-0.487368 0,-0.282888 -0.227437,-0.490324 -0.494043,-0.490324 -0.269133,0 -0.49675,0.207436 -0.49675,0.490324 l 0,0"
         style="fill:#ffffff;fill-opacity:1;fill-rule:nonzero;stroke:none"
         id="path3050" /><path
         inkscape:connector-curvature="0"
         d="m 4.9893808,95.791725 0,5.874455 -1.6066407,0 0,-7.273587 4.092811,0 0,1.399132 -2.4861703,0"
         style="fill:#ffffff;fill-opacity:1;fill-rule:nonzero;stroke:none"
         id="path3052" /><path
         inkscape:connector-curvature="0"
         d="m 21.163116,94.392593 3.824183,0 0,1.400684 -2.209564,0 0,0.913248 2.209564,0 0,1.348501 -2.209564,0 0,0.917688 2.209564,0 0,1.406456 -3.824183,0 0,-5.986577"
         style="fill:#ffffff;fill-opacity:1;fill-rule:nonzero;stroke:none"
         id="path3054" /><path
         inkscape:connector-curvature="0"
         d="m 11.147352,98.972714 -1.4130852,0 0,-3.173444 1.4130852,0 0,3.173444 z m 1.609529,-3.815429 c 0,-0.422147 -0.342112,-0.764692 -0.764187,-0.764692 l -3.1036969,0 c -0.4220031,0 -0.7642591,0.342545 -0.7642591,0.764692 l 0,4.457486 c 0,0.422349 0.342256,0.764399 0.7642591,0.764399 l 3.1036969,0 c 0.422075,0 0.764187,-0.34205 0.764187,-0.764399 l 0,-4.457486"
         style="fill:#ffffff;fill-opacity:1;fill-rule:nonzero;stroke:none"
         id="path3056" /><path
         inkscape:connector-curvature="0"
         d="m 18.63478,100.37917 0,-4.587445 -0.970035,0 0,4.587445 -1.413175,0 0,-4.587445 -0.969873,0 0,4.587445 -1.609727,0 0,-5.221885 c 0,-0.422147 0.342454,-0.764692 0.764602,-0.764692 l 1.902506,0 c 0.320524,0 0.619278,0.221264 0.619278,0.542093 0,-0.320829 0.298465,-0.542093 0.619024,-0.542093 l 1.902886,0 c 0.422021,0 0.764259,0.342545 0.764259,0.764692 l 0,5.221885 -1.609745,0"
         style="fill:#ffffff;fill-opacity:1;fill-rule:nonzero;stroke:none"
         id="path3058" /><path
         inkscape:connector-curvature="0"
         d="m 30.62917,96.654901 7.22e-4,-3.43e-4 -0.01029,0.02065 c -0.006,0.01249 -0.01227,0.02532 -0.01859,0.0378 l -0.01029,0.01982 c -0.254512,0.510631 -0.824548,0.937075 -1.742597,1.304222 l -0.03213,0.0124 c -0.181769,0.07135 -0.734837,0.287689 -0.796028,0.639241 -0.01715,0.09838 0.02292,0.252996 0.13231,0.346841 0.116065,0.117888 0.293502,0.178177 0.527256,0.178177 0.373826,0 0.799819,-0.153141 1.020215,-0.244098 0.46426,-0.192563 0.871299,-0.36453 0.875631,-0.366588 l 0.04007,-0.01684 0,1.306533 -0.01354,0.0087 c -0.0085,0.0056 -0.886641,0.558934 -1.773283,0.686404 -0.101985,0.008 -0.202888,0.0128 -0.299819,0.0128 -0.816425,0 -1.434836,-0.29662 -1.837904,-0.88151 -0.338086,-0.480794 -0.375451,-1.241244 -0.08791,-1.808915 0.369675,-0.641858 0.962995,-0.9098 1.53646,-1.16906 0.236282,-0.10648 0.481047,-0.217454 0.709747,-0.353754 l 0.0029,-0.0012 c 0.258664,-0.155686 0.390613,-0.393303 0.33592,-0.604765 -0.0565,-0.219151 -0.30722,-0.366299 -0.624006,-0.366299 -0.04296,0 -0.087,0.0026 -0.129603,0.0082 l -0.01552,0.0023 c -0.608845,0.08475 -1.843861,0.544475 -1.856316,0.549205 l -0.03917,0.01487 0,-1.432976 0.02004,-0.0067 c 0.01173,-0.0041 1.207038,-0.399783 2.268047,-0.399783 l 1.81e-4,0 c 0.579422,0 1.016605,0.116697 1.299276,0.346191 0.0067,0.0051 0.655054,0.526371 0.683754,1.413031 0.0081,0.245505 -0.04765,0.496172 -0.165523,0.745414"
         style="fill:#ffffff;fill-opacity:1;fill-rule:nonzero;stroke:none"
         id="path3060" /></g></g></svg>