<?xml version="1.0" encoding="UTF-8" standalone="no"?>
<!-- Created with Inkscape (http://www.inkscape.org/) -->

<svg
   xmlns:dc="http://purl.org/dc/elements/1.1/"
   xmlns:cc="http://creativecommons.org/ns#"
   xmlns:rdf="http://www.w3.org/1999/02/22-rdf-syntax-ns#"
   xmlns:svg="http://www.w3.org/2000/svg"
   xmlns="http://www.w3.org/2000/svg"
   xmlns:sodipodi="http://sodipodi.sourceforge.net/DTD/sodipodi-0.dtd"
   xmlns:inkscape="http://www.inkscape.org/namespaces/inkscape"
   id="svg2"
   version="1.1"
   inkscape:version="0.48.4 r9939"
   width="123"
   height="93"
   xml:space="preserve"
   sodipodi:docname="Owens_Corning.svg"
   inkscape:export-filename="D:\My Webs\wwwroot\kritterMedia-llc\krittermedia\www\wp-content\themes\kritter3_0\images\clientLogos\Owens_Corning.png"
   inkscape:export-xdpi="90"
   inkscape:export-ydpi="90"><metadata
     id="metadata8"><rdf:RDF><cc:Work
         rdf:about=""><dc:format>image/svg+xml</dc:format><dc:type
           rdf:resource="http://purl.org/dc/dcmitype/StillImage" /><dc:title></dc:title></cc:Work></rdf:RDF></metadata><defs
     id="defs6" /><sodipodi:namedview
     pagecolor="#ffffff"
     bordercolor="#666666"
     borderopacity="1"
     objecttolerance="10"
     gridtolerance="10"
     guidetolerance="10"
     inkscape:pageopacity="0"
     inkscape:pageshadow="2"
     inkscape:window-width="1627"
     inkscape:window-height="849"
     id="namedview4"
     showgrid="false"
     showguides="true"
     inkscape:guide-bbox="true"
     inkscape:zoom="3.8927835"
     inkscape:cx="81.175847"
     inkscape:cy="49.322034"
     inkscape:window-x="0"
     inkscape:window-y="0"
     inkscape:window-maximized="0"
     inkscape:current-layer="g10"><sodipodi:guide
       orientation="0,1"
       position="35.963983,81.175848"
       id="guide3045" /><sodipodi:guide
       orientation="0,1"
       position="191.63665,19.009534"
       id="guide3047" /></sodipodi:namedview><g
     id="g10"
     inkscape:groupmode="layer"
     inkscape:label="ink_ext_XXXXXX"
     transform="matrix(1.25,0,0,-1.25,0,93)"><rect
       style="color:#000000;fill:#ffffff;fill-opacity:1;fill-rule:nonzero;stroke:none;stroke-width:1.41057563;marker:none;visibility:visible;display:inline;overflow:visible;enable-background:accumulate"
       id="rect3825"
       width="49.789425"
       height="49.789425"
       x="27.226898"
       y="-64.891319"
       transform="scale(1,-1)" /><path
       inkscape:connector-curvature="0"
       id="path16"
       style="fill:#ed192d;fill-opacity:1;fill-rule:evenodd;stroke:none"
       d="m 73.745632,63.21605 c 0.13989,0 1.72736,0.04663 2.47411,0 0,-10.909398 0,-21.866122 0,-32.822115 0,-3.137352 0,-6.27446 0,-9.411256 0,-1.170627 0.18686,-2.622209 -0.0466,-3.745928 -0.13988,-0.749089 -0.84036,-1.591991 -1.63374,-1.685492 -0.42035,-0.04663 -0.887,0 -1.35363,0 -1.02757,0 -2.10108,0 -3.12831,0 -3.26784,0 -6.4887,0 -9.71027,0 -10.50345,0 -21.00756,0 -31.511148,0 0,2.247578 0.04649,4.354468 0.233388,6.367823 0.140025,2.013355 0.653534,3.979699 1.027086,5.805912 1.540594,7.350995 5.321703,13.999704 9.383384,18.869282 2.38092,2.809211 4.9017,5.384582 7.93615,7.538206 4.52832,3.230958 7.84269,5.337605 15.91921,7.678788 1.02688,0.281166 2.10073,0.468029 3.17424,0.655588 0.79374,0.140582 1.58746,0.327445 2.3812,0.421398 1.58712,0.186864 3.17424,0.327794 4.85497,0.327794" /><path
       inkscape:connector-curvature="0"
       id="path18"
       style="fill:#ed192d;fill-opacity:1;fill-rule:evenodd;stroke:none"
       d="m 29.162934,64.526876 c 1.400186,0.18756 3.127714,0.09361 4.574772,0.09361 3.361098,0 6.769246,0 10.130346,0 6.34879,0 12.65137,0 18.95357,0 3.17458,0 6.48905,0.04697 9.61666,-0.04663 -4.15483,-0.187213 -7.98256,-0.936405 -11.34401,-1.966414 -15.77888,-4.86958 -27.216401,-16.575147 -32.024874,-32.400961 -0.887061,-2.762617 -1.213845,-5.759004 -1.587223,-9.083255 -0.140026,3.277483 -0.04677,6.78891 -0.04677,10.113334 0,6.414556 0,12.829321 0,19.196936 0,2.949793 0,5.759352 0,8.708798 0,1.217568 -0.140129,2.668976 0.04677,3.792591 0.139851,0.702564 0.933689,1.498734 1.680759,1.591991" /><path
       inkscape:connector-curvature="0"
       id="path20"
       style="fill:#ffffff;fill-opacity:1;fill-rule:evenodd;stroke:none"
       d="m 41.860792,29.363579 c 1.91401,0 3.50095,-0.983033 3.50095,-3.230714 0,-2.200428 -1.58694,-3.230611 -3.50095,-3.230611 -1.91401,0 -3.50137,1.030183 -3.50137,3.230611 0,2.247681 1.58736,3.230714 3.50137,3.230714 z m -2.10091,-3.230714 c 0,-1.404571 0.88706,-2.247578 2.10091,-2.247578 1.21384,0 2.10104,0.843007 2.10104,2.247578 0,1.404674 -0.8872,2.247681 -2.10104,2.247681 -1.21385,0 -2.10091,-0.843007 -2.10091,-2.247681" /><path
       inkscape:connector-curvature="0"
       id="path22"
       style="fill:#ffffff;fill-opacity:1;fill-rule:evenodd;stroke:none"
       d="m 59.927152,23.464165 0,5.197093 c 0.0466,0.515422 0.0933,0.56219 0.0933,0.56219 l -0.37338,0 -1.12048,0 -0.0933,0 c 0,0 0.047,-0.04677 0.0933,-0.796133 l 0,-4.776112 c -0.0463,-0.561634 -0.0933,-0.60868 -0.0933,-0.60868 l 0.0933,0 1.4006,0 0.0933,0 c 0,0 -0.0466,0.04705 -0.0933,0.421642" /><path
       inkscape:connector-curvature="0"
       id="path24"
       style="fill:#ffffff;fill-opacity:1;fill-rule:evenodd;stroke:none"
       d="m 57.546642,23.464165 0,5.103836 c 0.0466,0.608679 0.0933,0.655447 0.0933,0.655447 l -0.0933,0 -1.26071,0 -0.0933,0 c 0,0 0.0933,-0.04677 0.0933,-0.655447 l 0,-4.026988 -3.03435,4.682435 -1.72753,0 -0.0933,0 c 0,0 0.0933,-0.04677 0.0933,-0.655447 l 0,-5.150708 c 0,-0.327724 -0.0464,-0.37477 -0.0464,-0.37477 l 0.0464,0 1.26089,0 0.0929,0 c 0,0 -0.0463,0.04705 -0.0929,0.468411 l 0,4.120246 3.08063,-4.588657 1.68107,0 0.0933,0 c 0,0 -0.0466,0.04705 -0.0933,0.421642" /><path
       inkscape:connector-curvature="0"
       id="path26"
       style="fill:#ffffff;fill-opacity:1;fill-rule:evenodd;stroke:none"
       d="m 68.983922,32.172963 0,5.150325 c 0.0466,0.468272 0.0933,0.514866 0.0933,0.514866 l -1.4006,0 c 0,0 0.0466,-0.04659 0.0936,-0.467994 l -0.047,-4.213885 -3.03435,4.681879 -1.77364,0 c 0,0 0.0466,-0.04659 0.0933,-0.701903 l 0,-5.010195 c -0.0466,-0.467853 -0.0933,-0.5149 -0.0933,-0.5149 l 1.40026,0 c 0,0 -0.0466,0.04705 -0.0933,0.374492 l 0,4.214164 3.08099,-4.588656 1.77398,0 c 0,0 -0.0466,0.04705 -0.0933,0.561807" /><path
       inkscape:connector-curvature="0"
       id="path28"
       style="fill:#ffffff;fill-opacity:1;fill-rule:evenodd;stroke:none"
       d="m 51.290662,23.042523 c 0,0 -0.18676,0.140687 -0.46677,0.468411 l -1.68049,2.341218 c 0.98019,0.234083 1.63372,0.655169 1.63372,1.825935 0,1.030043 -0.84043,1.545361 -2.05386,1.545361 l -2.8477,0 -0.0933,0 c 0,0 0.0933,-0.04677 0.0933,-0.796133 l 0,-4.96315 c 0,-0.374596 -0.0467,-0.421642 -0.0467,-0.421642 l 0.0467,0 1.3537,0 0.0934,0 c 0,0 -0.0466,0.04705 -0.0934,0.328002 l 0,4.963009 1.26047,0 c 0.74707,0 0.93383,-0.421398 0.93383,-0.88967 0,-0.702181 -0.6068,-1.029904 -1.30734,-1.029904 l -0.55989,0.04687 2.00708,-3.137352 0.0934,-0.280956 0.0467,0 1.49398,0 -0.0467,0 0.13985,0" /><path
       inkscape:connector-curvature="0"
       id="path30"
       style="fill:#ffffff;fill-opacity:1;fill-rule:evenodd;stroke:none"
       d="m 43.774802,39.055965 c 2.28724,0 4.20153,-1.170626 4.20153,-3.839289 0,-2.668977 -1.91429,-3.839847 -4.20153,-3.839847 -2.28767,0 -4.20154,1.17087 -4.20154,3.839847 0,2.668663 1.91387,3.839289 4.20154,3.839289 z m -2.52091,-3.839289 c 0,-1.685805 1.02704,-2.668977 2.52091,-2.668977 1.49372,0 2.52091,0.983172 2.52091,2.668977 0,1.685492 -1.02719,2.668663 -2.52091,2.668663 -1.49387,0 -2.52091,-0.983171 -2.52091,-2.668663" /><path
       inkscape:connector-curvature="0"
       id="path32"
       style="fill:#ffffff;fill-opacity:1;fill-rule:evenodd;stroke:none"
       d="m 69.637432,31.751704 -0.0466,1.030218 c 0.51361,-0.234223 0.93362,-0.327864 1.49386,-0.327864 0.42,0 0.98025,0.187038 0.98025,0.702217 0,0.889635 -2.52109,1.732399 -2.52109,3.230714 0,0.795856 0.56059,1.544979 2.05411,1.544979 0.51396,0 0.98059,-0.09381 1.44723,-0.187176 l 0.047,-1.02994 c -0.42036,0.140409 -0.74711,0.233944 -1.16746,0.233944 -0.70012,0 -0.98025,-0.374491 -0.98025,-0.655726 0,-0.983033 2.52109,-1.685248 2.52109,-3.183424 0,-0.749645 -0.51361,-1.639037 -2.10073,-1.639037 -0.60688,0 -1.16712,0.140547 -1.72736,0.281095" /><path
       inkscape:connector-curvature="0"
       id="path34"
       style="fill:#ffffff;fill-opacity:1;fill-rule:evenodd;stroke:none"
       d="m 38.312652,30.206481 0.0934,-1.264128 c -0.56018,0.14027 -1.353733,0.327724 -1.913871,0.281095 -1.72725,-0.04677 -2.6608,-0.936681 -2.707707,-2.66908 0,-1.63848 1.073576,-2.575163 2.707707,-2.621931 0.700164,0 1.353691,0.187038 1.960601,0.374492 l -0.0467,-1.310895 c -0.65358,-0.140687 -1.493724,-0.234188 -2.194029,-0.234188 -2.194164,0 -4.107893,1.217359 -4.154661,3.652114 -0.0935,2.668663 1.633888,4.026604 4.201429,4.026604 0.653537,0 1.446951,-0.09354 2.053861,-0.234083" /><path
       inkscape:connector-curvature="0"
       id="path36"
       style="fill:#ffffff;fill-opacity:1;fill-rule:evenodd;stroke:none"
       d="m 62.447892,32.407151 0,0.280956 c 0,0 -0.0929,-0.04701 -0.65315,-0.09378 l -2.4748,0 0,1.73226 2.33456,0 c 0.37338,-0.04674 0.42036,-0.09336 0.42036,-0.09336 l 0,1.076811 c 0,0 -0.047,-0.04677 -0.46698,-0.09336 l -2.28794,0 0,1.638585 2.61469,0 c 0.42035,-0.04688 0.46698,-0.09364 0.46698,-0.09364 l 0,1.076534 -4.57519,0 c 0,0 0.0932,-0.09336 0.0932,-0.608263 l 0,-4.916102 c 0,-0.655586 -0.0932,-0.702633 -0.0932,-0.702633 l 4.57519,0 0.0463,0.795995" /><path
       inkscape:connector-curvature="0"
       id="path38"
       style="fill:#ffffff;fill-opacity:1;fill-rule:evenodd;stroke:none"
       d="m 73.512142,26.554368 -0.0933,0 -1.307,0 -0.13989,0 c 0,0 0.0929,-0.04705 0.13989,-0.561912 l -0.047,-1.919471 c -0.32675,-0.09378 -0.74676,-0.187698 -1.26037,-0.187698 -1.26071,0 -2.14771,0.843007 -2.14771,2.247578 0,1.358184 1.02723,2.247681 2.56772,2.247681 0.65384,0 1.30735,-0.18728 1.96119,-0.375014 l -0.0466,1.077091 c -0.70082,0.140825 -1.44723,0.280956 -2.14771,0.280956 -2.42783,0 -3.73483,-1.498037 -3.73483,-3.230714 0,-2.200428 1.6341,-3.230611 3.54797,-3.230611 1.02688,0 1.82061,0.140269 2.61435,0.280956 l 0,2.809246 c 0.0466,0.514865 0.0933,0.561912 0.0933,0.561912" /><path
       inkscape:connector-curvature="0"
       id="path40"
       style="fill:#ffffff;fill-opacity:1;fill-rule:evenodd;stroke:none"
       d="m 66.789592,23.417293 0,5.384513 c 0.0466,0.374874 0.0936,0.421642 0.0936,0.421642 l -0.32674,0 -0.70048,0 -0.37338,0 c 0,0 0.0466,-0.04677 0.0932,-0.56219 l 0,-4.120245 -3.034,4.682435 -1.7277,0 -0.0932,0 c 0,0 0.0466,-0.04677 0.0932,-0.702459 l 0,-5.056824 c -0.0466,-0.374596 -0.0932,-0.421642 -0.0932,-0.421642 l 0.0932,0 1.21374,0 0.0933,0 c 0,0 -0.0463,0.04705 -0.0933,0.37477 l 0.047,4.213887 3.03435,-4.588657 1.68037,0 0.0936,0 c 0,0 -0.047,0.04705 -0.0936,0.37477" /><path
       inkscape:connector-curvature="0"
       id="path42"
       style="fill:#ffffff;fill-opacity:1;fill-rule:evenodd;stroke:none"
       d="m 56.052442,32.032694 1.26037,5.197197 0.18721,0.608263 -0.3271,0 -1.21374,0 -0.0466,0 -0.14024,-0.889358 -0.74675,-3.979976 -1.12049,4.026883 -0.18687,0.842451 -0.0466,0 -1.82061,0 -0.0934,0 -0.13999,-0.795717 -1.16721,-4.073617 -0.70003,3.746032 -0.1403,1.123302 -1.54031,0 -0.0934,0 0.28001,-0.795717 1.21384,-5.009743 c 0.0465,-0.327723 0,-0.421538 0,-0.421538 l 0.0932,0 1.30696,0 0.46706,0 c 0,0 -0.0467,0.09381 0,0.374492 l 1.40053,4.541888 0.047,0 1.35363,-4.541888 c 0.0466,-0.280677 0.0466,-0.374492 0.0466,-0.374492 l 0.42001,0 1.30735,0 0.0933,0 c 0,0 -0.0466,0.09381 0.0466,0.421538" /><g
       transform="matrix(0.03474607,0,0,0.03484911,17.934442,5.1116972)"
       id="g44"><path
         inkscape:connector-curvature="0"
         id="path46"
         style="fill:none;stroke:#f89ebe;stroke-width:7.46366978;stroke-linecap:butt;stroke-linejoin:miter;stroke-miterlimit:2.61310005;stroke-opacity:1;stroke-dasharray:none"
         d="m 1677.47,455.419 c 0,90.012 0,180.031 0,270.058 0,314.383 0,628.783 0,941.833 l -1.35,0 0,40.3 -150.48,0 c -76.58,1.35 -155.85,0 -233.78,0 -181.38,0 -362.766,0 -545.485,0 -96.733,0 -194.82,0 -291.553,0 -41.648,0 -91.366,2.69 -131.664,-2.69 -21.5,-2.67 -44.347,-25.52 -48.372,-45.68 -5.379,-32.24 -1.346,-73.89 -1.346,-108.82 0,-84.64 0,-165.26 0,-249.9 0,-182.73 0,-366.797 0,-550.864 0,-95.394 -2.684,-196.155 1.346,-290.203 1.342,4.033 1.342,8.058 1.342,12.091 l 0,-171.98 37.622,0 0,0 c 302.295,0 604.606,0 906.9,0 92.71,0 185.42,0 279.47,0 29.55,0 60.45,0 90.02,0 13.43,0 26.87,-1.338 38.96,0 22.84,2.684 42.99,26.871 47.02,48.366 6.72,32.245 1.35,73.899 1.35,107.489 z" /></g><path
       inkscape:connector-curvature="0"
       id="path48"
       style="fill:#ed192d;fill-opacity:1;fill-rule:evenodd;stroke:none"
       d="m 80.851089,17.902346 c 1.419392,0 2.573087,1.15705 2.573087,2.580968 0,1.424074 -1.153695,2.581281 -2.573087,2.581281 -1.420173,0 -2.573868,-1.157207 -2.573868,-2.581281 0,-1.423918 1.153695,-2.580968 2.573868,-2.580968 z m 0,0.445013 c -1.242651,0 -2.218435,0.890066 -2.218435,2.135955 0,1.246085 0.975784,2.136267 2.218435,2.136267 1.24226,0 2.129478,-0.890182 2.129478,-2.136267 0,-1.245889 -0.887218,-2.135955 -2.129478,-2.135955 z m -0.621521,2.04696 0.621521,0 0.886827,-1.334923 0.355433,0 -0.799042,1.334923 c 0.443609,0 0.887218,0.17799 0.887218,0.800876 0,0.534204 -0.265697,0.801188 -1.064349,0.801188 l -1.242261,0 0,-2.936987 0.354653,0 0,1.334923 z m 0,0.356175 0,0.890027 0.798652,0 c 0.355043,0 0.709696,0 0.709696,-0.445326 0,-0.533696 -0.532174,-0.444701 -0.976173,-0.444701 l -0.532175,0" /></g></svg>