<?xml version="1.0" encoding="UTF-8" standalone="no"?>
<!-- Created with Inkscape (http://www.inkscape.org/) -->

<svg
   xmlns:dc="http://purl.org/dc/elements/1.1/"
   xmlns:cc="http://creativecommons.org/ns#"
   xmlns:rdf="http://www.w3.org/1999/02/22-rdf-syntax-ns#"
   xmlns:svg="http://www.w3.org/2000/svg"
   xmlns="http://www.w3.org/2000/svg"
   xmlns:sodipodi="http://sodipodi.sourceforge.net/DTD/sodipodi-0.dtd"
   xmlns:inkscape="http://www.inkscape.org/namespaces/inkscape"
   width="744.09448819"
   height="1052.3622047"
   id="svg2"
   version="1.1"
   inkscape:version="0.48.5 r10040"
   sodipodi:docname="signatureLogo.svg">
  <defs
     id="defs4" />
  <sodipodi:namedview
     id="base"
     pagecolor="#ffffff"
     bordercolor="#666666"
     borderopacity="1.0"
     inkscape:pageopacity="0.0"
     inkscape:pageshadow="2"
     inkscape:zoom="0.35"
     inkscape:cx="481.12047"
     inkscape:cy="520"
     inkscape:document-units="px"
     inkscape:current-layer="layer1"
     showgrid="false"
     showborder="false"
     inkscape:window-width="1366"
     inkscape:window-height="741"
     inkscape:window-x="1911"
     inkscape:window-y="150"
     inkscape:window-maximized="1" />
  <metadata
     id="metadata7">
    <rdf:RDF>
      <cc:Work
         rdf:about="">
        <dc:format>image/svg+xml</dc:format>
        <dc:type
           rdf:resource="http://purl.org/dc/dcmitype/StillImage" />
        <dc:title></dc:title>
      </cc:Work>
    </rdf:RDF>
  </metadata>
  <g
     inkscape:label="Layer 1"
     inkscape:groupmode="layer"
     id="layer1">
    <path
       style="fill:#000000;fill-opacity:1;stroke:#070000;stroke-width:2;stroke-linecap:butt;stroke-linejoin:round;stroke-miterlimit:4;stroke-opacity:1;stroke-dasharray:none;stroke-dashoffset:0"
       id="path3021"
       d="m -637.44609,641.39074 c -1.91742,-0.34047 -3.86231,-0.55183 -5.75226,-1.02141 -28.72923,-7.13809 -56.25807,-19.65028 -83.16285,-31.64816 -8.73968,-4.3096 -17.59425,-8.39365 -26.21905,-12.9288 -16.27102,-8.55574 -38.87447,-21.74503 -54.40579,-31.56844 -14.99913,-9.48679 -32.38479,-21.20847 -46.23375,-32.53205 -6.02365,-4.92522 -11.56567,-10.41172 -17.3485,-15.61759 -16.17135,-17.53526 -30.04332,-38.05526 -33.51997,-62.2049 -2.13718,-14.84536 -0.47027,-18.54322 1.70279,-33.40232 10.76719,-36.28712 34.40283,-66.25881 62.09822,-91.42309 6.41361,-5.82746 13.30162,-11.11044 19.95242,-16.66567 31.57299,-22.30338 65.13709,-42.30263 101.72673,-55.12707 20.37548,-7.14149 41.21225,-11.59735 62.34518,-15.7031 12.22862,-1.18429 31.86446,-8.93738 41.54854,3.3381 5.15739,6.53748 5.56484,14.5736 7.10324,22.34556 0.34398,5.94412 1.01584,11.87831 1.03196,17.83235 0.0456,16.86318 -1.72491,34.4716 -4.13991,51.07985 -3.32967,22.89852 -8.59838,49.05666 -14.09904,71.35324 -3.68286,14.92829 -7.99979,29.69297 -11.99969,44.53946 -20.11638,70.54353 -42.24964,140.51149 -67.2895,209.46836 -7.89011,21.72844 -32.74337,87.22161 -41.16712,109.49107 -25.87585,68.09728 -52.82699,135.93566 -84.61624,201.52341 0,0 -35.36587,15.9669 -35.36587,15.9669 l 0,0 c 35.18015,-65.7991 64.16211,-134.72016 91.29239,-204.16632 14.67791,-38.11732 27.58636,-71.04572 41.4679,-109.53612 24.66819,-68.39935 45.94115,-137.97472 65.07003,-208.11418 12.92708,-52.30574 27.72394,-109.02856 25.8367,-163.4362 -0.19657,-5.66681 -1.04739,-11.29196 -1.57108,-16.93795 -1.34532,-5.85232 -2.19528,-14.11635 -6.4934,-19.16479 -7.96157,-9.35143 -28.3188,-2.57494 -37.97643,-1.87758 -20.62474,3.85282 -40.88847,8.19412 -60.6878,15.35513 -8.07817,2.92171 -15.48065,7.87792 -23.87524,9.70117 -3.5724,0.7759 12.00075,-8.33857 8.8748,-6.44318 -7.48444,4.53813 -14.64604,9.58851 -21.96906,14.38276 -6.65719,5.44115 -13.55445,10.60113 -19.97157,16.32343 -27.24261,24.2929 -50.53175,53.29863 -61.62241,88.48604 -2.33787,14.27223 -3.96547,17.62273 -2.18427,31.94901 2.91172,23.41918 15.8437,43.5762 31.10392,60.90206 5.53539,5.22448 10.81794,10.73057 16.60619,15.67344 37.33214,31.87973 82.08234,55.72749 126.40757,76.2069 29.57551,12.21782 59.94722,25.18534 91.95695,29.14575 0,0 -34.45473,24.45493 -34.45473,24.45493 z"
       inkscape:connector-curvature="0" />
    <path
       style="fill:#000000;fill-opacity:1;stroke:#070000;stroke-width:2;stroke-linecap:butt;stroke-linejoin:round;stroke-miterlimit:4;stroke-opacity:1;stroke-dasharray:none;stroke-dashoffset:0"
       id="path3043"
       d="m -600.46102,562.76157 c 20.84746,-0.46806 39.88855,-8.82336 58.5936,-17.20482 4.7536,-2.42864 18.64588,-10.32992 14.26079,-7.28592 -6.14739,4.26735 -12.57453,8.3535 -19.58194,10.9797 -5.07632,1.90249 9.20388,-5.73565 13.69415,-8.77309 11.99662,-8.11514 21.34025,-15.83907 31.6268,-25.91669 10.16889,-10.9635 17.03334,-23.95362 19.92487,-38.56553 0.6525,-6.65903 -0.27199,-9.75336 -6.99045,-10.89585 3.97994,-4.3261 -13.65899,5.50915 -10.60861,3.79326 10.62757,-5.97819 21.07106,-12.28914 31.82609,-18.03485 1.64634,-0.87953 -3.07391,2.13921 -4.44427,3.40653 -1.46417,1.35408 -2.6836,2.95087 -4.0254,4.42631 -8.23564,10.59072 -11.08307,23.61545 -12.83467,36.61258 -1.02606,14.04732 3.52235,16.65554 16.27531,19.75696 18.02529,2.01705 36.66301,4.15067 54.76766,1.67658 4.87433,-0.6661 9.65287,-1.90604 14.4793,-2.85907 16.38831,-4.01642 32.05413,-10.43402 47.23455,-17.71608 5.46727,-2.62266 20.58832,-12.45554 16.20519,-8.26536 -5.03116,4.8097 -11.26789,9.93042 -18.22318,10.19452 -5.80424,0.22039 9.4932,-6.69551 14.23981,-10.04327 17.17646,-13.11565 32.84666,-28.28275 45.69227,-45.71072 5.78136,-7.84372 8.98341,-13.53614 13.94071,-21.74373 1.59012,-2.94603 3.25121,-5.85484 4.77036,-8.83808 1.01941,-2.00187 6.47348,-14.49108 6.85476,-14.67432 40.5797,-19.50269 39.41577,-30.83367 38.55157,-11.40346 -10.61773,30.15113 -18.22954,61.09513 -24.67167,92.36824 -10.94567,50.93228 -15.95784,102.70766 -18.95895,154.62447 -1.13358,37.11874 -3.46242,74.43931 -0.27378,111.51381 1.33,9.1214 3.51012,21.3433 13.79471,24.6686 1.30737,0.4227 2.72986,0.3153 4.09479,0.473 17.37739,-9.0336 -17.49403,10.4992 -26.75077,14.7363 -2.41551,1.1056 4.16446,-3.3518 5.87769,-5.3821 7.8464,-9.2983 11.7213,-20.93 15.92421,-32.1046 8.47281,-27.1053 13.53593,-55.60436 13.58477,-84.06928 0.01,-5.8444 -0.43873,-11.68059 -0.6581,-17.52089 -2.0031,-19.48274 -6.86561,-38.62093 -16.51941,-55.7834 -5.06567,-9.00571 -7.35912,-11.23756 -13.65481,-19.08274 -3.93415,-7.0372 -12.57842,-10.26084 -16.77839,-17.01378 -1.8257,-2.93545 -1.656,-6.43835 1.82334,-8.49322 14.15655,-8.36075 29.09106,-15.32808 43.63659,-22.99212 15.36843,-3.8547 30.80131,-7.66217 45.55862,-13.54606 6.46414,-2.57732 12.13267,-7.66371 19.03053,-8.58417 5.35796,-0.71496 -17.72088,11.98486 -14.14399,7.93211 4.95853,-5.61819 12.30846,-8.55023 18.46268,-12.82534 20.23831,-15.66389 39.70956,-32.99269 53.94477,-54.4954 7.16757,-10.82682 8.7118,-15.38988 13.90615,-26.8771 1.37906,-3.99459 2.89986,-7.94304 4.13718,-11.98378 1.04685,-3.4187 1.86858,-6.9032 2.71029,-10.3781 0.55891,-2.30739 1.00092,-4.64155 1.49056,-6.96462 0.20247,-0.96058 -0.29582,-2.45427 0.58573,-2.88623 41.126511,-20.15237 39.318141,-29.48902 37.795981,-7.9436 -0.54812,4.37924 -1.01156,8.7699 -1.64436,13.1377 -3.21516,22.19183 -6.8842,44.26937 -9.4652,66.55762 -2.92228,25.23531 -3.32039,33.03262 -5.39387,58.71154 -1.78533,39.79624 -6.00004,79.92877 -2.31831,119.76553 2.08956,22.60923 4.21994,28.33731 9.343,49.88487 2.61982,6.92691 4.71519,14.07557 7.85944,20.78072 9.83744,20.97844 25.79668,40.08164 45.76448,52.04704 3.91285,2.3447 8.16796,4.064 12.25195,6.096 10.6327504,4.1335 21.8899604,7.8189 33.40923,4.9215 3.40181,-0.8557 12.73617,-5.8267 9.71544,-4.0436 -33.7364296,19.9147 -30.00769957,17.9394 -16.51847,4.4482 14.73336,-19.6716 22.24826,-43.9567 23.22973,-68.46032 0.22861,-5.70744 -0.21038,-11.42209 -0.31557,-17.13314 -3.14542,-30.01056 -14.00428,-58.38544 -31.2632996,-83.10188 -3.21649,-4.60628 -6.84009,-8.91446 -10.26013,-13.37169 -13.4662104,-15.6846 -29.3494904,-29.37538 -47.6904804,-39.08577 -8.96024,-4.74388 -15.74639,-6.94931 -25.15639,-10.47037 -14.16506,-4.92184 -28.865241,-7.66229 -43.757381,-9.00061 0,0 33.969761,-24.09777 33.969761,-24.09777 l 0,0 c 14.7454,2.03297 29.24423,5.38179 43.19944,10.65996 9.70633,3.88124 16.09241,6.08963 25.33043,11.23551 18.4608004,10.28328 34.55951,24.41527 48.08092,40.56265 8.714,11.53363 12.63239,15.92726 19.78796,28.63433 12.1458,21.56886 19.64162,45.51942 22.86972,70.00402 0.26425,5.81775 0.89248,11.63037 0.79276,17.45327 -0.42706,24.93764 -7.79771,49.82921 -21.5465,70.58571 -18.62022,21.2994 -9.27067,12.5806 -52.8948496,36.2102 -3.19033,1.7281 -6.84311,2.5681 -10.4302804,3.1128 -11.95804,1.8155 -23.37667,-2.44 -34.12234,-7.0561 -4.11958,-2.2444 -8.42358,-4.1792 -12.35873,-6.7333 -20.06539,-13.0229 -35.95228,-33.0347 -45.711001,-54.7554 -3.10899,-6.9198 -5.16511,-14.2661 -7.74766,-21.39923 -4.76612,-21.33602 -7.08634,-28.55834 -9.04183,-50.82285 -3.51907,-40.06678 1.30208,-80.31563 2.50821,-120.35538 1.94788,-28.16928 4.21469,-56.25087 7.23085,-84.32847 1.415,-13.17231 3.30216,-26.29398 4.5406,-39.48406 0.39124,-4.16691 0.52129,-8.35422 0.78194,-12.53133 0.79735,-20.84035 -1.62996,-7.85832 37.490881,-28.46159 0.95033,-0.5005 -1.18514,1.81497 -1.54861,2.82567 -3.60244,10.0173 -4.7289,20.85287 -9.29963,30.57044 -5.05063,11.27687 -7.24353,17.22981 -14.06857,27.87031 -14.189001,22.12119 -33.978891,39.84236 -54.398591,56.03587 -30.06858,21.61557 -23.71146,17.98991 -70.45292,43.05954 -17.07515,9.1582 -36.14153,14.27191 -54.58816,19.76057 -4.05975,1.20795 -8.11046,2.44608 -12.16569,3.66912 9.349,-5.8339 19.203,-10.92739 28.04701,-17.50171 0.25611,-0.19039 -6.6855,-1.24334 -5.20944,2.07818 2.76525,6.22251 13.081,11.50347 15.90375,17.76018 6.18538,8.10666 8.73256,10.84114 13.74835,20.01774 9.7338,17.80838 14.55801,37.53986 16.55636,57.63063 0.25022,5.94052 0.73862,11.87579 0.75067,17.82157 0.058,28.60811 -4.60709,57.3047 -12.29786,84.7883 -3.24251,9.5851 -10.39502,33.4312 -19.47468,39.2791 -37.96541,24.4523 -25.91626,22.7487 -46.50156,24.3495 -1.58344,-0.5393 -3.25582,-0.8665 -4.75033,-1.6179 -10.88227,-5.4711 -13.79607,-17.5871 -14.67299,-28.7245 -1.82731,-37.7359 1.52682,-75.53563 2.59009,-113.25036 1.64602,-26.82057 3.43667,-53.62493 6.50396,-80.33049 2.60828,-22.70925 3.77036,-28.22009 7.46502,-50.46864 1.32304,-7.96704 2.65623,-15.93238 3.98434,-23.89857 5.67106,-30.57094 12.41667,-60.94612 21.7748,-90.62813 4.31584,-17.03048 -0.15662,-2.79123 38.22288,-23.4755 0.75103,-0.40476 -1.72686,0.55189 -2.24453,1.23006 -4.41267,5.78075 -6.64392,16.66718 -11.52309,22.18343 -4.26454,6.99632 -9.48289,15.83251 -14.23399,22.41542 -12.83451,17.78293 -28.52635,33.38065 -45.7277,46.91736 -27.50217,20.15576 -15.47334,12.1182 -63.35041,38.89246 -20.23109,11.31382 -42.1974,19.83657 -64.63775,25.49339 -4.98374,0.87259 -9.9272,2.01913 -14.95121,2.61777 -18.73639,2.23257 -38.08616,0.53049 -56.68088,-1.98229 -14.65824,-4.41749 -20.00874,-8.78903 -19.34839,-24.84123 1.60557,-13.47525 4.2648,-27.15604 11.84247,-38.68313 12.50457,-17.52474 23.40152,-18.66188 47.78616,-32.27402 3.90607,-2.18047 8.42976,-2.41769 12.69623,-1.54116 7.84733,3.0991 10.29057,8.00136 9.79072,16.42761 -2.8282,15.53886 -9.81657,29.53652 -20.30049,41.42738 -2.94248,3.01939 -5.71604,6.21316 -8.82745,9.05817 -24.12323,22.05777 -57.84676,39.55993 -85.25336,54.93928 -4.69298,2.63349 -9.6386,4.78902 -14.4579,7.18353 -19.73052,8.58026 -39.84762,16.83439 -61.68799,17.40866 0,0 34.29328,-24.91552 34.29328,-24.91552 z"
       inkscape:connector-curvature="0" />
    <path
       style="fill:#000000;fill-opacity:1;stroke:#070000;stroke-width:2;stroke-linecap:butt;stroke-linejoin:round;stroke-miterlimit:4;stroke-opacity:1;stroke-dasharray:none;stroke-dashoffset:0"
       id="path3055"
       d="m -26.175303,451.33299 c 10.722565,0.5776 21.3911243,0.14092 31.9674303,-1.70804 5.7012747,-1.08557 11.5138167,-1.67288 16.6252667,-4.63953 0.98991,-0.57454 3.84856,-2.47482 2.85118,-1.91335 -11.105769,6.252 -22.1231357,12.65975 -33.1847027,18.98962 5.620195,-3.93839 9.112356,-9.62561 11.767467,-15.81419 2.44533,-6.41561 2.788535,-13.30097 3.033253,-20.0855 0.36661,-5.14536 0.03543,-9.74362 -5.128728,-11.84811 -6.573151,-2.02079 -11.7850863,0.65485 -17.5711253,3.41468 62.975006,-34.62555 34.071936,-22.60222 23.8032263,-11.22635 -2.19272,2.42913 -3.758741,4.70328 -5.695739,7.33946 -4.932281,6.45068 -7.317234,13.97924 -8.583735,21.87955 -0.884706,6.38664 -1.210742,12.55895 1.574572,18.48081 4.90967799,7.18876 13.378921,9.29114 21.4763217,10.76566 8.58199,1.45659 17.14775,0.61988 25.63483,-0.95777 5.61835,-1.24903 11.01732,-3.55243 16.17968,-6.06896 2.02758,-0.9884 7.91603,-4.32786 5.96238,-3.20035 -40.09703,23.14139 -37.09631,21.40344 -22.87779,12.765 13.86707,-8.02553 27.73005,-16.05813 41.60122,-24.07658 18.723826,-10.82361 -3.17371,2.22265 -23.4689,13.33591 -1.75152,0.9591 3.30986,-2.23511 4.9571,-3.36395 4.68905,-3.21335 3.5964,-2.461 7.84904,-5.593 4.99836,-4.15077 10.26834,-7.94441 14.36167,-13.02931 3.07148,-3.83889 5.74716,-8.00324 8.28614,-12.20915 2.04592,-4.28738 2.74431,-9.05009 4.03001,-13.60437 1.036786,-4.75671 1.631006,-9.54627 2.850006,-14.26751 3.69472,-16.46717 -4.397996,-2.86017 38.90617,-21.43768 0.14073,-0.0604 0.87617,6.67798 0.91566,7.04199 1.53007,5.89638 7.58385,7.46761 12.61622,9.52116 6.33676,2.58584 3.66677,1.39341 9.5058,4.27431 8.78971,5.13688 8.69354,10.96217 4.23401,19.24692 -3.7475,6.0184 -7.95037,11.73563 -11.7915,17.69217 -3.34915,4.31891 -4.97536,9.20984 -5.77922,14.53455 -0.29129,4.37008 0.64767,7.0432 5.0472,7.91367 0.88361,0.12413 4.60374,0.69236 5.40861,0.60799 4.47794,-0.46942 10.01095,-3.07527 14.03688,-4.95594 -69.67111,39.42634 -37.46698,22.55002 -28.10772,15.35516 5.87684,-4.51778 11.35222,-9.67314 16.93144,-14.5498 8.58262,-7.57741 16.77394,-15.57809 24.9411,-23.59639 8.19205,-7.50469 14.62597,-16.28731 20.61928,-25.55535 6.2776,-8.82319 12.30183,-17.83252 18.16481,-26.93713 3.61162,-6.4199 7.97174,-12.53311 11.00683,-19.267 44.77693,-20.87118 42.62808,-27.23612 36.02273,3.73388 -3.08499,12.36085 -6.15843,24.72491 -9.10535,37.11942 -2.77165,11.28013 -3.61154,22.86309 -4.027,34.43019 0.0711,2.37179 -1.56283,14.93912 4.1383,13.91442 1.06017,-0.19055 1.96012,-0.8939 2.94017,-1.34084 17.99935,-9.28149 -16.93375,10.17247 -25.79835,14.50056 -2.47709,1.20943 4.38616,-3.34447 6.48561,-5.13081 7.54446,-6.41926 14.07495,-13.75001 20.76222,-21.02718 11.14538,-13.25101 22.52216,-26.3276 32.92852,-40.17484 2.3564,-3.63759 10.30904,-14.38158 7.87821,-18.85714 12.85761,-5.08173 25.39348,-11.06823 38.57282,-15.2452 1.17483,-0.37235 -0.89996,2.2947 -1.34144,3.44533 -0.76102,1.98343 -1.54088,3.95998 -2.26606,5.95679 -3.13771,8.63974 -5.57906,17.40128 -7.9796,26.26857 -6.38315,26.8678 -8.61882,54.51298 -10.97689,81.96285 -2.28821,43.2869 -7.32645,86.37772 -13.23295,129.30455 -7.17678,53.05996 -16.83464,105.72513 -29.846,157.65972 -7.57611,26.07255 -16.26421,52.26793 -30.66946,75.48941 -7.41902,11.95956 -10.74044,15.13021 -19.67279,25.70337 -20.0363,21.37068 -43.76296,38.78243 -67.11605,56.30295 -23.37025,16.12048 -48.28973,32.65612 -75.460466,41.70461 -7.71052,2.5678 -10.18438,2.9172 -17.92356,4.6328 -18.04729,3.7268 -31.74977,1.9923 -49.01423,-3.6541 -10.499524,-4.02914 -5.36986,-2.04598 -15.3902747,-5.94622 0,0 34.3243047,-23.01862 34.3243047,-23.01862 l 0,0 c 9.79242,3.91748 4.76419,1.99005 15.09198,5.76326 16.9043,4.87136 30.37326,5.89661 47.728396,1.90775 9.27236,-2.25444 18.19916,-4.81464 26.94205,-8.73383 3.38711,-1.51834 13.08671,-6.96962 9.98277,-4.93408 -4.29665,2.81772 -42.5874,25.6377 -13.66617,7.1304 23.52476,-17.37546 47.29594,-34.78312 67.8621,-55.67303 8.92864,-10.02904 12.8995,-13.77695 20.39414,-25.17249 15.06593,-22.90762 24.33904,-49.07944 32.31342,-75.11381 5.07707,-19.17836 8.31401,-30.42576 12.41398,-50.03356 7.41299,-35.45198 12.62887,-71.39687 17.67942,-107.2397 5.46544,-42.6511 10.16512,-85.46826 11.97296,-128.44705 1.9502,-27.40846 3.53392,-55.04558 9.35642,-81.96306 2.21892,-8.81361 4.49873,-17.5547 7.1724,-26.24173 0.59134,-1.92133 1.1915,-3.83993 1.78976,-5.75911 0.34139,-1.09515 0.0184,-2.74148 1.02919,-3.28389 12.88671,-6.91523 26.49335,-12.3957 39.74003,-18.59355 -0.2638,-0.35477 -0.42082,-1.30538 -0.79139,-1.06429 -0.58395,0.37991 -1.71202,5.50401 -1.89516,6.08574 -1.50076,4.76692 -3.69484,9.23495 -6.76338,13.1978 -10.67806,14.01199 -22.40402,27.13081 -33.47994,40.82698 -20.9713,23.01256 -40.1254,43.9379 -72.96448,52.56906 -1.49704,-0.195 -3.07482,-0.0623 -4.49113,-0.58501 -7.18113,-2.65027 -6.24095,-12.36796 -6.05749,-18.2699 0.48451,-11.80635 1.00458,-23.70072 3.82623,-35.22883 2.88591,-12.33679 5.99469,-24.62328 8.96595,-36.93785 6.01072,-29.11615 -2.12357,-15.83881 41.27058,-37.59089 -0.43547,0.0211 -0.93609,-0.16675 -1.30641,0.0633 -3.79376,2.35719 -7.84711,14.5451 -11.17902,18.07665 -5.83613,9.07533 -11.56134,18.25323 -17.97453,26.92611 -2.9964,4.36764 -5.54727,9.02418 -8.69227,13.28786 -3.87777,5.25709 -2.97381,3.62612 -7.5627,8.46962 -1.4466,1.52687 -2.82778,3.11442 -4.24168,4.67163 -8.11467,8.06036 -16.22835,16.13126 -24.7497,23.76561 -4.12967,3.69588 -8.40601,7.21739 -12.54675,10.89766 -0.99403,0.88349 -6.66715,6.32529 -8.04712,7.15114 -13.16166,7.87661 -26.60207,15.27779 -39.9031,22.91668 -7.08147,2.63135 -14.17479,4.74621 -21.58809,2.00092 -5.43764,-2.68311 -7.737,-6.74386 -7.85095,-12.83316 0.54366,-5.81312 1.54385,-11.53559 4.99648,-16.41729 4.18291,-5.70852 7.82087,-11.80465 11.9814,-17.55833 4.24421,-5.90078 7.11979,-8.85257 -0.7047,-13.19449 -8.91657,-4.37356 -20.67733,-6.86344 -24.53032,-17.08461 -0.0391,-0.20644 -0.93524,-5.6292 -0.65226,-5.78787 79.06438,-44.33022 40.96235,-31.58477 36.46655,-17.92497 -1.10734,4.78035 -2.48067,9.38656 -2.82394,14.32231 -1.15832,4.85152 -2.62173,9.56753 -3.64696,14.45055 -2.05174,4.70906 -5.34285,8.68251 -7.95382,13.09501 -2.42154,2.78846 -1.24872,1.27967 -3.48088,4.55536 -3.06527,3.76953 -7.54533,5.94941 -10.86169,9.46295 -16.525006,13.24335 -36.284996,23.12623 -54.188276,33.6104 -2.109,1.23504 -8.46783,4.88537 -6.35433,3.65805 9.73182,-5.65132 19.47288,-11.28671 29.20933,-16.93006 -22.66348,13.84859 -45.05034,30.56049 -71.3163327,36.56443 -8.89706301,1.23824 -17.870489,1.86041 -26.7155263,-0.19726 -9.182259,-2.29701 -18.123939,-5.6857 -23.558509,-13.9431 -3.354417,-6.66484 -3.868415,-13.3248 -2.796979,-20.68339 1.082789,-8.40166 3.091373,-16.72309 7.960649,-23.81339 16.141779,-23.00704 19.933854,-20.4324 53.449018,-38.98032 6.62119,-2.65928 13.33343,-3.53713 20.00567,-0.35188 5.59623,3.79518 7.86393,9.1518 7.27745,15.93905 -0.20653,7.16796 -0.44619,14.45162 -2.45593,21.38148 -2.35415,6.77496 -5.51055,13.06983 -10.7813,18.0798 -28.0045487,16.5812 -33.2610427,24.51076 -58.953789,28.10273 -10.906761,1.392 -21.849834,1.49186 -32.832655,1.56321 0,0 34.293277,-24.91553 34.293277,-24.91553 z"
       inkscape:connector-curvature="0" />
    <path
       style="fill:#000000;fill-opacity:1;stroke:#070000;stroke-width:2;stroke-linecap:butt;stroke-linejoin:round;stroke-miterlimit:4;stroke-opacity:1;stroke-dasharray:none;stroke-dashoffset:0"
       id="path3059"
       d="m 433.95476,631.90908 c 15.7507,-31.19192 26.514,-64.66598 37.2022,-97.8466 17.8707,-57.22166 29.7465,-116.08141 38.3475,-175.35688 2.011,-13.85899 3.6117,-27.77442 5.4176,-41.66164 8.4288,-73.85715 11.0607,-148.2147 10.9635,-222.503779 -0.1304,-6.11449 -0.2407,-12.22944 -0.3913,-18.34347 -0.5176,-21.02704 -5.1176,-25.46315 38.1886,-25.5972 4.4001,-0.0136 0.26,8.79657 0.3404,13.19595 0.115,6.29016 0.1639,12.58137 0.2459,18.87205 0.2595,67.592759 3.2016,135.144349 5.5866,202.687929 1.4951,75.58939 6.8261,151.04866 17.2216,225.93226 5.6242,30.22006 9.065,63.01786 20.382,91.87428 -12.6202,6.54548 -24.1536,15.86392 -37.8606,19.63644 -2.8873,0.79467 -2.3913,-5.49156 -3.6351,-8.2157 -1.9818,-4.34043 -3.9577,-8.68458 -6.0412,-12.97711 -9.3226,-19.20675 -19.9339,-37.42576 -30.9342,-55.7097 -19.9817,-31.44925 -41.7219,-61.95164 -66.3601,-89.9537 -16.1796,-18.38852 -20.3515,-21.77823 -37.5564,-38.41146 -21.7195,-18.8553 -43.9285,-38.15971 -70.4191,-49.98442 0,0 34.5516,-22.77692 34.5516,-22.77692 l 0,0 c 25.5281,13.60954 46.9155,33.5548 68.0956,52.97896 16.6257,16.69248 21.3469,20.91514 37.2045,39.04872 24.6978,28.24257 46.7184,58.71006 67.4898,89.91616 13,20.5986 11.9709,18.46315 23.5817,38.71266 2.1481,3.74635 13.1486,23.59477 16.1534,28.68753 1.3384,2.26854 6.1556,4.88197 4.2272,6.67612 -10.2225,9.51079 -23.6177,14.90058 -35.4266,22.35086 -1.2081,-9.62764 -4.0614,-19.04736 -5.8871,-28.57826 -4.1976,-21.91356 -7.5875,-43.99797 -10.099,-66.16724 -9.0437,-75.40603 -13.4821,-151.22478 -15.6052,-227.13301 -2.9,-66.90154 -6.5945,-133.75446 -9.5458,-200.65107 -0.4042,-6.080969 -0.6919,-12.170799 -1.2126,-18.242899 -0.3487,-4.0664 -4.2418,-9.23994 -1.3948,-12.16428 10.2211,-10.49871 24.3701,-16.27962 36.7371,-24.13784 0.7516,-0.47758 -1.6085,1.08856 -1.823,1.95281 -1.4492,5.83704 -2.0949,26.75969 -2.2362,29.49977 -3.138,74.795089 -5.2054,149.729459 -13.4808,224.187209 -1.6951,13.87256 -3.1766,27.77289 -5.0853,41.61768 -8.1172,58.87859 -19.2442,117.40412 -35.5402,174.59568 -9.8155,32.58983 -19.9548,65.18186 -33.0369,96.63247 0,0 -38.3653,17.35764 -38.3653,17.35764 z"
       inkscape:connector-curvature="0" />
    <path
       style="fill:#000000;fill-opacity:1;stroke:#070000;stroke-width:2;stroke-linecap:butt;stroke-linejoin:round;stroke-miterlimit:4;stroke-opacity:1;stroke-dasharray:none;stroke-dashoffset:0"
       id="path3061"
       d="m 628.67429,341.31221 c 1.93687,-0.66471 3.89802,-1.26248 5.8106,-1.99414 2.73575,-1.04656 5.48953,-2.06726 8.12849,-3.33828 3.39397,-1.63467 13.23994,-7.19425 9.94569,-5.36693 -7.84976,4.35424 -15.15454,9.94138 -23.6126,12.94794 -4.54667,1.61618 7.84053,-5.63619 11.58953,-8.67416 4.17218,-3.38089 8.10544,-7.0464 12.15815,-10.5696 22.09989,-19.56287 41.52707,-41.61862 58.44217,-65.74894 14.7519,-23.76813 14.58657,-26.52227 50.74006,-40.12165 2.01249,-0.75701 2.56307,3.53708 3.23934,5.57813 0.92754,2.79941 0.99866,5.81299 1.49798,8.71949 2.37334,28.20127 0.54509,56.52123 -0.79493,84.71942 -2.2291,46.90726 -1.00973,19.19651 -3.01446,67.88787 -1.9782,70.43706 -5.23054,140.84488 -10.57692,211.10913 -1.18789,18.73852 -3.3473,37.3666 -6.08495,55.93051 0,0 -35.9999,17.553 -35.9999,17.553 l 0,0 c 3.89754,-18.81514 6.9621,-37.75478 8.80541,-56.89986 7.24029,-70.26308 10.63987,-140.84397 11.72853,-211.46445 0.23177,-8.01091 1.69824,-58.25902 1.91241,-67.32304 0.64644,-27.3581 1.49929,-54.89592 -2.39529,-82.07868 -4.44486,-20.58887 -7.32156,-6.86641 31.70862,-28.72331 1.48117,-0.82946 -2.59918,2.21952 -3.64517,3.55659 -0.87498,1.11848 -9.83398,15.20917 -9.96121,15.40822 -17.19343,24.37722 -36.55934,46.95665 -58.81418,66.91 -5.49241,5.0039 -16.42193,15.45367 -22.98251,19.60871 -22.57152,14.2953 -45.59841,29.57565 -71.19531,38.13768 0,0 33.37045,-25.76365 33.37045,-25.76365 z"
       inkscape:connector-curvature="0" />
    <path
       style="fill:#000000;fill-opacity:1;stroke:#070000;stroke-width:2;stroke-linecap:butt;stroke-linejoin:round;stroke-miterlimit:4;stroke-opacity:1;stroke-dasharray:none;stroke-dashoffset:0"
       id="path3063"
       d="m 614.96074,232.06753 c 20.57833,-15.95533 40.66169,-32.48205 61.57367,-48.01221 29.3124,-22.02965 61.22955,-40.06079 93.79627,-56.83275 6.81883,-3.51171 19.03251,-7.07965 26.48299,-9.44281 10.83967,-2.09847 23.3207,-7.83195 34.60901,-4.54128 6.30054,1.83667 6.79816,3.82657 11.01786,8.61495 1.30367,2.44565 2.8849,4.7625 3.91103,7.33697 2.71562,6.81324 4.08514,14.97813 5.0151,22.1389 2.16208,16.64814 2.25368,33.38108 2.40255,50.13321 -1.59302,39.43272 -8.38288,79.09068 -24.23895,115.46109 -3.38578,7.76625 -7.56192,15.16344 -11.34288,22.74516 -15.53817,27.7333 -35.74632,52.23283 -60.04105,72.7008 -13.8149,11.63886 -18.40129,14.22309 -33.01775,24.14553 -4.73405,2.85395 -9.40936,5.80769 -14.20215,8.56186 -15.46795,8.88862 -30.94046,17.77363 -46.57595,26.36414 -6.107,3.35534 -12.659,5.84013 -18.84232,9.05265 -1.83775,0.95479 -7.19448,4.10641 -5.39444,3.0823 11.40293,-6.48757 22.80209,-12.98178 34.20313,-19.47266 0.14532,-0.38841 0.0238,-1.11921 0.43597,-1.16523 1.45487,-0.16247 2.89351,0.44977 4.34613,0.63121 2.68166,0.33495 5.36859,0.62674 8.05537,0.91779 12.53656,1.35802 25.07524,2.64834 37.63104,3.815 22.56345,2.47794 45.86581,4.00733 67.10436,12.76612 3.69969,1.52576 7.1987,3.49878 10.79805,5.24816 8.52917,5.18292 11.41394,6.28217 18.70027,13.44878 17.62812,17.33847 28.83222,42.66427 40.39563,64.12798 4.08261,8.51966 8.30133,16.97542 12.24781,25.55899 13.34511,29.02555 25.93077,58.39409 39.50324,87.32172 11.85219,25.26115 13.42328,27.95066 25.60984,52.05547 13.33698,25.67413 7.03174,13.53074 18.91713,36.42943 0,0 -34.16931,19.40908 -34.16931,19.40908 l 0,0 c -10.73232,-23.52166 -4.97235,-11.07531 -17.33197,-37.31494 -12.97266,-27.15686 -25.67109,-54.41785 -38.23888,-81.76427 -3.34536,-7.27921 -23.08226,-50.16859 -26.73936,-57.67888 -4.10306,-8.42614 -8.52078,-16.69538 -12.78118,-25.04307 -12.19267,-21.21255 -23.58684,-44.61906 -41.79171,-61.54976 -6.81588,-6.33884 -10.34754,-7.93715 -18.1646,-12.65446 -3.46906,-1.64304 -6.84352,-3.50283 -10.40717,-4.92913 -21.04328,-8.42229 -44.0398,-9.75611 -66.31309,-12.14292 -9.04039,-0.77381 -18.07609,-1.60202 -27.11731,-2.36598 -5.36672,-0.45348 -21.40069,-0.54155 -26.21089,-3.89049 -1.53844,-1.0711 -2.26655,-2.98647 -3.39983,-4.4797 18.18771,-11.45365 26.78203,-18.48891 42.26303,-25.9859 5.95689,-2.88475 23.32742,-12.36817 17.92011,-8.55144 -4.74231,3.34733 -43.58826,25.71171 -6.7682,4.40805 5.53487,-3.62403 11.20371,-7.05128 16.60461,-10.87211 31.82671,-22.5156 58.78922,-50.62414 78.22647,-84.57478 3.82882,-7.45767 8.05999,-14.72213 11.48645,-22.37303 15.97623,-35.67306 22.71544,-74.72664 23.74034,-113.58998 -0.37904,-16.38763 -0.78797,-32.72445 -3.23735,-48.96901 -0.99327,-6.58746 -2.46916,-14.31387 -5.11944,-20.56958 -0.94681,-2.23485 -2.39026,-4.22501 -3.5854,-6.33752 -1.36529,-1.37078 -2.47168,-3.06113 -4.09589,-4.11233 -9.35817,-6.05671 -28.29407,1.02555 -37.88176,3.16012 -4.03485,1.32651 -8.12249,2.5021 -12.10456,3.97953 -4.56069,1.69212 -16.68162,9.20976 -13.50786,5.52324 4.9804,-5.78507 13.34804,-7.53839 19.32772,-12.28337 4.54598,-3.60733 -10.07237,5.77284 -14.99545,8.84563 -13.11084,8.18325 -17.93451,11.9453 -30.52408,20.96573 -20.23395,15.0008 -39.68095,30.89383 -59.097,46.92605 0,0 -39.0874,15.62395 -39.0874,15.62395 z"
       inkscape:connector-curvature="0" />
    <path
       style="fill:#000000;fill-opacity:1;stroke:#070000;stroke-width:2;stroke-linecap:butt;stroke-linejoin:round;stroke-miterlimit:4;stroke-opacity:1;stroke-dasharray:none;stroke-dashoffset:0"
       id="path3065"
       d="m 875.35721,388.7705 c -6.62849,12.58669 -11.21118,25.98921 -14.71506,39.73335 -2.87061,12.30116 -4.15507,24.87283 -4.67658,37.46925 0.18181,7.2883 2.17643,9.18314 9.34042,6.78006 16.60476,-9.98161 -11.13514,6.74387 -25.93011,14.53825 -2.25078,1.18577 4.22933,-2.84271 6.19452,-4.4583 6.78211,-5.57561 11.84387,-12.18478 16.9567,-19.23564 6.90498,-9.39728 12.1207,-19.61439 14.76415,-30.96557 1.96,-7.68105 -1.6372,-12.99221 -7.26459,-17.78271 -3.17832,-2.84818 -6.86919,-4.85265 -10.64783,-6.75223 0,0 35.20184,-23.00544 35.20184,-23.00544 l 0,0 c 3.90061,2.24105 7.72979,4.57809 11.11998,7.57067 6.36088,5.70709 11.29462,12.71746 9.44559,21.70019 -2.48375,12.00681 -7.51631,22.93455 -14.84048,32.81877 -3.76818,5.5168 -5.9032,8.97916 -10.30874,14.05664 -14.84863,17.11333 -37.77877,29.67641 -58.422,36.6561 -1.52684,-0.0549 -3.0799,0.12231 -4.58053,-0.16469 -6.31732,-1.20823 -8.53216,-7.19189 -8.53716,-12.87707 0.73925,-12.96119 2.27782,-25.88541 5.1226,-38.56608 3.17378,-13.65937 7.21044,-27.15654 13.29799,-39.83321 0,0 38.47929,-17.68234 38.47929,-17.68234 z"
       inkscape:connector-curvature="0" />
    <path
       style="fill:#000000;fill-opacity:1;stroke:#070000;stroke-width:2;stroke-linecap:butt;stroke-linejoin:round;stroke-miterlimit:4;stroke-opacity:1;stroke-dasharray:none;stroke-dashoffset:0"
       id="path3067"
       d="m 913.82304,381.68708 c 1.27393,-0.58322 2.58852,-1.08474 3.82177,-1.74965 1.72816,-0.93175 6.77086,-3.97648 5.04902,-3.0331 -9.86606,5.40552 -19.32787,11.58497 -29.48503,16.42137 -2.66791,1.27034 4.68399,-3.61827 6.8401,-5.63884 6.76407,-6.33886 8.99898,-9.68366 14.89592,-17.02647 10.83923,-15.26303 19.86457,-31.79201 26.37731,-49.36622 5.54063,-14.95101 6.71121,-21.16369 10.80994,-36.90913 7.59927,-36.71048 12.14217,-74.35581 12.29373,-111.88081 -4.30515,-15.34474 -5.40943,-13.91606 34.25429,-18.82129 3.94681,-0.4881 -3.5418,7.13359 -4.98285,10.84016 -8.94922,23.01851 -13.97636,47.18968 -19.4896,71.17996 -13.27923,61.30649 -19.68396,123.72403 -23.30122,186.25465 -0.34401,23.84076 -3.97449,50.26698 6.75546,72.55315 -2.21485,6.93464 11.44871,-3.89902 8.69091,-2.53083 -10.33028,5.12499 -19.80121,11.97399 -30.41066,16.49281 -2.66258,1.13406 4.14291,-4.04443 6.12808,-6.15026 2.29863,-2.43835 4.47938,-4.98518 6.71907,-7.47777 15.95875,-16.33571 27.1382,-35.87625 35.73298,-56.84643 4.47201,-12.53767 7.92752,-25.51765 6.46347,-38.86783 -1.23483,-18.72597 23.47477,-19.86289 39.66037,-28.21088 0.7745,-0.39948 1.7463,0.0624 2.6144,-0.0145 0.9918,-0.0879 1.9658,-0.31892 2.9486,-0.47839 13.1084,-5.65252 33.6934,-18.85225 -28.9247,16.80578 0,0 39.2891,-15.77112 39.2891,-15.77112 l 0,0 c -14.7102,8.74728 -27.4304,21.099 -44.1725,24.31434 -16.5616,2.34503 -18.87526,10.88951 29.1615,-19.1221 0.5583,-0.34878 -1.3247,-0.40423 -1.9607,-0.2348 -0.4422,0.11776 -0.7762,0.57641 -0.9341,1.00586 -0.2604,0.70841 -0.175,1.49936 -0.2626,2.24904 0.075,1.30746 0.4751,8.05463 0.4524,8.69488 -0.3939,11.1306 -4.0899,21.98243 -7.2893,32.5213 -8.5329,21.17084 -19.1802,41.39356 -35.08812,58.05535 -19.2845,22.4946 -13.59857,16.33871 -52.74167,39.2791 -5.22012,3.05932 -9.27703,1.26252 -12.41118,-3.24365 -9.86411,-23.93663 -5.825,-51.01772 -4.25792,-76.0812 5.20186,-62.65697 11.75132,-125.252 23.68564,-187.04198 4.81226,-23.60147 9.50133,-47.07961 16.14653,-70.24411 1.0552,-3.67835 0.28892,-8.67096 3.33717,-10.98436 12.1199,-9.19817 25.93418,-16.20726 40.03205,-21.92988 1.7158,-0.69646 0.2213,3.69686 0.332,5.54528 -2.67441,37.93128 -6.01079,75.99506 -13.39653,113.33084 -3.47989,14.75232 -5.00625,22.88971 -9.79486,37.03953 -6.03241,17.82515 -14.80221,34.43782 -25.21637,50.06677 -5.26535,7.01754 -12.93666,18.59549 -20.45998,23.44005 -13.56285,8.73366 -27.57972,16.74306 -41.47794,24.93252 -4.54742,2.67955 -5.47073,2.7714 -10.04042,4.33033 0,0 33.60644,-25.69743 33.60644,-25.69743 z"
       inkscape:connector-curvature="0" />
    <path
       style="fill:#000000;fill-opacity:1;stroke:#070000;stroke-width:2;stroke-linecap:butt;stroke-linejoin:round;stroke-miterlimit:4;stroke-opacity:1;stroke-dasharray:none;stroke-dashoffset:0"
       id="path3069"
       d="m 1019.4564,484.0958 c 11.9076,-14.23452 22.0473,-29.77562 31.7666,-45.54862 10.4108,-17.28503 17.5817,-36.17126 21.8009,-55.8481 0.539,-5.98129 2.8218,-12.23937 1.7205,-18.32324 -0.1895,-1.04652 -1.0079,-3.78001 -2.8609,-2.27182 -0.8786,0.71515 -1.2899,1.86278 -1.9349,2.79416 52.1378,-30.33897 33.0265,-23.19216 25.5898,-5.86611 -2.883,6.71689 -4.4683,13.77141 -5.9802,20.88272 -1.1952,7.51906 -2.7474,15.38942 -0.5534,22.91006 1.1997,4.11242 2.8215,6.30009 4.9915,9.94682 5.657,8.3476 13.4182,12.8828 23.0341,15.05627 2.6378,0.37258 4.5811,0.89314 7.2562,0.29162 1.2099,-0.27205 2.305,-0.91553 3.4576,-1.3733 -11.0154,6.1194 -21.9233,12.43643 -33.0462,18.35821 -1.306,0.69529 2.4512,-1.67229 3.5552,-2.65729 1.3731,-1.22521 2.5691,-2.63556 3.8537,-3.95335 10.1849,-11.79633 17.1225,-25.85986 24.9755,-39.20682 12.2671,-21.65786 7.9082,-20.83452 46.2919,-33.62495 2.1331,-0.71081 2.0546,4.04239 2.6026,6.22303 0.7762,3.08828 0.8923,6.30581 1.3384,9.45872 1.8612,21.92304 6.3952,43.43321 15.6463,63.43391 4.8,8.08001 9.4634,16.99052 18.7276,20.37388 3.8173,-0.0511 1.8981,0.20311 5.749,-0.82434 0,0 -33.8775,25.184 -33.8775,25.184 l 0,0 c -4.8018,-0.0913 -2.4388,0.24707 -7.0884,-1.0212 -9.3917,-5.09952 -14.479,-14.28646 -19.3101,-23.52177 -8.9627,-20.46001 -13.2884,-42.26423 -16.1483,-64.35748 -0.5502,-2.75583 -1.0017,-5.53321 -1.6506,-8.26749 -0.2009,-0.84676 -1.6127,-1.96324 -0.8935,-2.4532 11.2149,-7.63954 23.3362,-13.8553 35.0042,-20.78296 -0.8756,0.81781 -1.951,1.4641 -2.6268,2.45342 -2.3408,3.42643 -3.0689,7.80148 -5.8823,10.97157 -8.3123,13.12956 -14.8735,27.36224 -24.3631,39.73793 -13.7056,17.11484 -35.8149,34.81602 -58.2443,29.37083 -10.2182,-3.21692 -18.3933,-8.95393 -24.4415,-17.97728 -2.2983,-3.87095 -4.3503,-6.84335 -5.7567,-11.18254 -2.604,-8.03426 -1.2664,-16.37838 0.056,-24.48366 1.4686,-7.37839 3.123,-14.64369 5.6651,-21.74543 0.5042,-1.40845 4.1811,-11.18267 5.996,-12.49378 12.5613,-9.07471 26.0993,-16.71452 39.149,-25.07178 1.3898,0.0275 2.8585,-0.38001 4.1694,0.0825 9.4738,3.3423 3.4546,19.67187 2.9122,25.99899 -4.2058,20.15296 -11.402,39.48023 -21.7278,57.34683 -9.3774,15.47983 -18.9021,30.93386 -30.1321,45.15771 0,0 -38.7906,16.82336 -38.7906,16.82336 z"
       inkscape:connector-curvature="0" />
    <path
       style="fill:#000000;fill-opacity:1;stroke:#070000;stroke-width:2;stroke-linecap:butt;stroke-linejoin:round;stroke-miterlimit:4;stroke-opacity:1;stroke-dasharray:none;stroke-dashoffset:0"
       id="path3071"
       d="m 1213.8505,452.86183 c 16.4789,-14.69191 30.5102,-31.82976 43.599,-49.53069 14.2164,-21.98349 27.5215,-44.68919 38.0541,-68.70114 7.4615,-17.0107 9.6074,-24.52864 15.6589,-42.22743 14.5398,-47.54962 19.0554,-97.11274 21.6128,-146.51673 0.1912,-6.52036 0.4317,-13.03945 0.5735,-19.56108 0.03,-1.38147 0.3959,-23.4721 0.087,-27.035575 -0.1342,-1.546042 -2.5952,-3.694209 -1.2584,-4.48227 44.3138,-26.122232 41.7725,-25.149782 31.3467,-8.569806 -1.9102,4.466477 -3.985,8.866087 -5.7307,13.399432 -3.0679,7.967249 -11.4947,33.034149 -13.7896,40.103279 -5.9742,18.40247 -9.8173,30.60996 -14.3967,49.506 -2.0646,8.51881 -3.7152,17.13261 -5.5728,25.69892 -8.2599,41.34962 -10.8827,83.46309 -11.9376,125.52182 0.3326,15.8322 0.9084,32.18485 7.17,47.00219 2.902,6.86714 5.1028,9.46965 9.2508,15.58839 9.5721,12.06205 19.0607,20.40914 34.3957,23.4781 1.8327,-0.28992 3.744,-0.26491 5.4981,-0.86975 2.0787,-0.71675 7.7906,-4.08168 5.8521,-3.04388 -9.399,5.03197 -18.2142,11.38451 -28.2341,15.02656 -3.4911,1.26893 5.472,-5.03051 8.061,-7.69402 7.3819,-7.59404 10.8732,-12.18389 17.7047,-20.4583 17.1004,-21.51978 31.2989,-45.04428 42.2669,-70.21527 4.0101,-8.57177 5.9491,-17.9034 9.3751,-26.68304 0.531,-1.36065 0.672,-3.17812 1.9184,-3.93948 39.4486,-24.09622 31.4746,-33.21324 42.151,-15.15426 7.5244,19.27264 12.2479,39.53045 17.1909,59.58644 3.9463,15.0991 7.7477,30.23386 10.1039,45.67197 1.7694,21.6384 -19.7159,22.34978 -41.0604,33.50989 -0.5821,0.30433 -10.6801,0.77446 -11.3058,0.80825 -13.5836,0.10257 -26.8602,-1.50283 -39.2249,-7.27356 -5.1864,-2.89026 -9.2527,-6.82758 -13.1484,-11.20708 0,0 35.7781,-21.66852 35.7781,-21.66852 l 0,0 c 3.5676,3.90612 7.2745,7.41127 12.0982,9.78399 12.0662,4.98438 24.9517,6.40084 37.9615,5.5799 2.0485,-0.26672 4.1209,-0.38921 6.1453,-0.80014 1.6125,-0.32732 6.1062,-2.31157 4.7313,-1.40765 -10.6577,7.00685 -21.8442,13.1745 -32.7326,19.81705 -0.7669,0.46783 1.7433,-0.6433 2.3653,-1.2914 1.7896,-1.86458 1.2931,-4.03349 1.355,-6.36626 -1.7015,-15.49609 -4.9675,-30.73461 -8.891,-45.81505 -4.6766,-19.56919 -9.0571,-39.51113 -17.639,-57.81192 -9.2035,-12.58989 -2.947,-2.69089 32.6078,-22.79144 1.2782,-0.72264 -2.2208,2.00542 -2.9249,3.29396 -1.5145,2.77156 -5.2329,14.44466 -6.0322,16.66145 -1.2821,3.55579 -2.6812,7.06833 -4.0217,10.60249 -10.9781,25.50954 -25.2129,49.36714 -42.1861,71.37603 -8.3526,10.54165 -8.3511,10.86349 -17.0075,20.58713 -2.4401,2.74084 -4.4185,6.04 -7.455,8.10045 -13.7391,9.32267 -28.1251,17.67678 -42.5779,25.84944 -4.9371,2.7918 -7.8452,2.05522 -13.0746,1.91971 -15.2937,-4.61119 -25.9399,-13.63467 -35.438,-26.39871 -4.6497,-6.94075 -6.4115,-8.82256 -9.6165,-16.62598 -6.3687,-15.5062 -6.7251,-32.35272 -6.7484,-48.86879 1.7388,-42.55459 5.0382,-85.13265 13.333,-126.9799 1.8272,-8.61546 3.4704,-17.272 5.4817,-25.84638 4.6942,-20.0127 7.7882,-29.90211 13.7043,-49.40821 4.0087,-13.21708 7.8926,-26.47469 12.168,-39.60792 1.4445,-4.43727 3.1049,-8.80132 4.6574,-13.20198 7.0493,-21.296168 2.5001,-14.464854 43.0159,-28.114055 1.8317,-0.61707 0.5576,3.840085 0.5447,5.77288 -0.062,9.292459 -0.9821,18.559383 -1.4978,27.837735 -0.3691,6.64259 -0.7787,13.28288 -1.168,19.92432 -3.2801,49.59346 -7.067,99.45218 -21.118,147.40398 -5.6889,17.29878 -8.0816,25.82155 -15.1546,42.49142 -10.1978,24.03447 -23.2328,46.72872 -36.8509,68.9496 -3.055,4.37483 -5.9898,8.83611 -9.1651,13.12451 -9.5684,12.92296 -20.7977,24.47816 -31.6012,36.34488 0,0 -39.2573,15.8455 -39.2573,15.8455 z"
       inkscape:connector-curvature="0" />
    <path
       style="fill:#000000;fill-opacity:1;stroke:#070000;stroke-width:2;stroke-linecap:butt;stroke-linejoin:round;stroke-miterlimit:4;stroke-opacity:1;stroke-dasharray:none;stroke-dashoffset:0"
       id="path3073"
       d="m 1180.4831,262.82055 c 43.8679,-6.0671 87.3273,-14.55419 130.7057,-23.40446 93.0601,-19.48932 182.8949,-51.20115 271.3547,-85.53248 13.5605,-5.61991 27.2051,-11.04126 40.6816,-16.85971 12.3414,-5.32841 24.5064,-11.05663 36.7633,-16.57693 33.1903,-14.94842 66.4158,-29.823385 99.54,-44.91778 0,0 -30.8814,24.47646 -30.8814,24.47646 l 0,0 c -57.5134,24.97467 -114.4853,51.22829 -172.6377,74.68968 -89.1714,34.14838 -179.6401,65.66784 -273.0622,86.14937 -45.3301,9.84354 -90.77,19.56632 -136.5949,26.7734 0,0 34.1309,-24.79755 34.1309,-24.79755 z"
       inkscape:connector-curvature="0" />
  </g>
</svg>
